<svg xmlns="http://www.w3.org/2000/svg"><defs><font id="icomoon" horiz-adv-x="1024"><font-face units-per-em="1024" ascent="960" descent="-64"/><glyph horiz-adv-x="512"/><glyph unicode="" glyph-name="ic_fullscreen" d="M298.667 362.667h-85.333V149.334h213.333v85.333h-128v128zm-85.334 170.666h85.333v128h128v85.333H213.333V533.333zm512-298.666h-128v-85.333h213.333v213.333h-85.333v-128zm-128 512v-85.333h128v-128h85.333v213.333H597.333z"/><glyph unicode="" glyph-name="ic_fullscreen_exit" d="M213.333 277.333h128v-128h85.333v213.333H213.333v-85.333zm128 341.334h-128v-85.333h213.333v213.333h-85.333v-128zm256-469.334h85.333v128h128v85.333H597.333V149.333zm85.334 469.334v128h-85.333V533.334h213.333v85.333h-128z"/><glyph unicode="" glyph-name="star" d="M907.168 520.305c5.229 4.683 8.585 11.413 8.585 18.987 0 14.125-11.45 25.574-25.574 25.574-1.286 0-2.519-.194-3.757-.378l-255.588 13.783-92.768 240.576c-2.187 11.906-12.57 23.437-25.107 23.437-11.904 0-21.818-3.885-24.67-16.685h-.209l-93.446-244.832-256.544-15.083c-1.395.235-2.805-.194-4.267-.194-14.125 0-25.574-11.761-25.574-25.886 0-7.337 3.13-14.063 8.079-18.726l-.081-.326L321.642 353.67l-66.624-250.178c-1.438-3.196-2.278-6.726-2.278-10.46 0-14.125 11.45-25.579 25.574-25.579 6.628 0 12.608 2.583 17.152 6.718l217.267 140.625 216.39-140.06c4.608-4.497 10.891-7.287 17.837-7.287 14.125 0 25.574 11.45 25.574 25.574 0 3.098-.636 6.029-1.645 8.779l-67.068 251.829L907.55 519.12l-.382 1.184z"/><glyph unicode="" glyph-name="v-right" d="M669.997 448L286.129 831.868c-12.476 12.476-12.476 32.702 0 45.175 12.476 12.476 32.702 12.476 45.175 0l405.201-405.201c.448-.401.951-.698 1.382-1.129 6.27-6.27 9.376-14.496 9.344-22.714.032-8.218-3.074-16.444-9.344-22.714-.431-.431-.934-.727-1.382-1.129L331.304 18.955c-12.476-12.476-32.7-12.476-45.175 0s-12.476 32.702 0 45.175l383.868 383.868z"/><glyph unicode="" glyph-name="alert-border" d="M512.329 919.149c-259.206 0-469.333-210.127-469.333-469.333S253.123-19.517 512.329-19.517 981.662 190.61 981.662 449.816 771.535 919.149 512.329 919.149zm1.066-897.067c-235.642 0-426.667 191.025-426.667 426.667s191.025 426.667 426.667 426.667 426.667-191.025 426.667-426.667S749.037 22.082 513.395 22.082zm-29.128 767.251h64V298.666h-64v490.667zm0-533.333h64v-85.333h-64V256z"/><glyph unicode="" glyph-name="exam-task" d="M895.561 768H128.438c-35.642 0-64.437-28.527-64.437-63.716V127.719c0-35.249 28.849-63.718 64.437-63.718h767.123c35.642 0 64.439 28.527 64.439 63.716v576.567C960 739.531 931.151 768 895.561 768zM672 256H352c-17.673 0-32 14.327-32 32s14.327 32 32 32h320c17.673 0 32-14.327 32-32s-14.327-32-32-32zm0 256H352c-17.673 0-32 14.327-32 32s14.327 32 32 32h320c17.673 0 32-14.327 32-32s-14.327-32-32-32z"/><glyph unicode="" glyph-name="material-task" d="M895.563 704H512L406.298 809.707C394.044 821.957 369.739 832 352.15 832H127.99c-35.59 0-63.989-28.653-63.989-64V127.708C64.001 93.165 92.852 64 128.438 64h767.125C931.202 64 960 92.523 960 127.708v512.589C960 674.84 931.149 704 895.563 704zM672 320H352c-17.673 0-32 14.327-32 32 0 17.677 14.327 32 32 32h320c17.673 0 32-14.323 32-32 0-17.673-14.327-32-32-32z"/><glyph unicode="" glyph-name="record-task" d="M895.561 765.867H128.438c-35.642 0-64.437-28.527-64.437-63.716V125.586c0-35.249 28.849-63.718 64.437-63.718h767.123c35.642 0 64.439 28.527 64.439 63.716v576.567c0 35.247-28.849 63.716-64.439 63.716zM635.219 399.396a31.99 31.99 0 0 0-10.748-10.748L432.608 272.172c-15.108-9.171-34.788-4.358-43.959 10.748a31.994 31.994 0 0 0-4.646 16.606v232.951c0 17.673 14.327 32 32 32a31.989 31.989 0 0 0 16.606-4.646l191.863-116.476c15.106-9.171 19.917-28.853 10.748-43.959z"/><glyph unicode="" glyph-name="live-task" d="M896 512c-35.345 0-64-28.653-64-64V128c0-35.347 28.655-64 64-64s64 28.653 64 64v320c0 35.347-28.655 64-64 64zM640 768c-35.347 0-64-28.655-64-64V128c0-35.347 28.653-64 64-64 35.345 0 64 28.653 64 64v576c0 35.345-28.655 64-64 64zM384 640c-35.347 0-64-28.655-64-64V128c0-35.347 28.653-64 64-64s64 28.653 64 64v448c0 35.345-28.653 64-64 64zM128 384c-35.347 0-64-28.653-64-64V128c0-35.347 28.653-64 64-64s64 28.653 64 64v192c0 35.347-28.653 64-64 64z"/><glyph unicode="" glyph-name="v-top" d="M534.451 677.696c.425-.425.719-.924 1.116-1.365l400.557-400.557c12.333-12.331 12.333-32.326 0-44.657-12.331-12.333-32.326-12.333-44.657 0L511.998 610.584 132.531 231.115c-12.333-12.333-32.326-12.333-44.659 0s-12.333 32.326 0 44.657l400.557 400.559c.397.442.691.941 1.116 1.365 6.197 6.197 14.33 9.269 22.453 9.237 8.124.032 16.256-3.04 22.453-9.237z"/><glyph unicode="" glyph-name="v-bottom" d="M534.451 224.704c.425.425.719.924 1.116 1.365l400.557 400.557c12.333 12.331 12.333 32.326 0 44.657-12.331 12.333-32.326 12.333-44.657 0L511.998 291.816 132.531 671.285c-12.333 12.333-32.326 12.333-44.659 0s-12.333-32.326 0-44.657l400.557-400.559c.397-.442.691-.941 1.116-1.365 6.197-6.197 14.33-9.269 22.453-9.237 8.124-.032 16.256 3.04 22.453 9.237z"/><glyph unicode="" glyph-name="list-dot" d="M320 768h384c35.346 0 64-28.654 64-64s-28.654-64-64-64H320c-35.346 0-64 28.654-64 64s28.654 64 64 64zm0-256h384c35.346 0 64-28.654 64-64s-28.654-64-64-64H320c-35.346 0-64 28.654-64 64s28.654 64 64 64zm0-256h384c35.346 0 64-28.654 64-64s-28.654-64-64-64H320c-35.346 0-64 28.654-64 64s28.654 64 64 64zM64 768h64c35.346 0 64-28.654 64-64s-28.654-64-64-64H64c-35.346 0-64 28.654-64 64s28.654 64 64 64zm0-256h64c35.346 0 64-28.654 64-64s-28.654-64-64-64H64c-35.346 0-64 28.654-64 64s28.654 64 64 64zm0-256h64c35.346 0 64-28.654 64-64s-28.654-64-64-64H64c-35.346 0-64 28.654-64 64s28.654 64 64 64z"/><glyph unicode="" glyph-name="pay-right" d="M416 864C186.603 864 0 677.397 0 448S186.603 32 416 32s416 186.624 416 416-186.624 416-416 416zm0-704c-158.805 0-288 129.195-288 288s129.195 288 288 288a286.49 286.49 0 0 0 191.232-73.259 63.585 63.585 0 0 1-12.501-9.493L384 442.517l-82.752 82.731c-25.425 24.555-65.941 23.851-90.496-1.572-23.953-24.802-23.953-64.122 0-88.924l128-128c24.992-24.983 65.504-24.983 90.496 0l252.395 252.395A286.333 286.333 0 0 0 704 448c0-158.805-129.195-288-288-288z"/><glyph unicode="" glyph-name="course-data" d="M960 154.005c0-24.378-18.923-45.205-42.263-45.205H106.264c-23.341 0-42.263 20.828-42.263 45.205v487.723c0 24.378 18.923 43.072 42.263 43.072h811.471c23.343 0 42.266-18.694 42.266-43.072V154.005zM84.811 706.133h313.773l-13.306 38.91c-7.821 24.764-34.11 42.157-57.673 42.157H106.666c-23.565 0-42.667-19.102-42.667-42.667v-43.71a43.2 43.2 0 0 0 20.811 5.31z"/><glyph unicode="" glyph-name="course-test" d="M960 759.467c0 23.565-19.102 42.667-42.667 42.667H106.666c-23.565 0-42.667-19.102-42.667-42.667V140.8c0-23.565 19.102-42.667 42.667-42.667h810.667c23.565 0 42.667 19.102 42.667 42.667v618.667zM489.732 270.933L451.428 371.2H314.116l-36.064-100.267h-46.144L358.02 599.466h46.816l134.4-328.533h-49.504zM780.8 413.867h-89.6v-89.6h-38.4v89.6h-89.6v38.4h89.6v89.6h38.4v-89.6h89.6v-38.4zM380.42 565.321c-4.181-21.056-10.08-42.438-17.696-63.194l-36.064-96.794h111.328l-34.272 91.418c-10.453 27.627-18.221 50.797-23.296 68.57z"/><glyph unicode="" glyph-name="course-replay" d="M719.573 464.427S461.226 649.174 444.16 661.12c-16.853 12.16-33.92 2.133-33.92-22.613v-379.52c0-31.147 14.72-40.32 35.627-27.093S715.52 417.707 715.52 417.707c18.987 15.36 18.987 33.92 4.053 46.72zm234.88-215.04c-2.987 1.493-15.787 8.32-32.853 17.707 24.107 55.04 37.547 115.627 37.547 179.413 0 247.467-200.533 448-448 448s-448-200.533-448-448 200.533-448 448-448c10.667 0 21.333.427 32 1.067h1.067c30.72 0 55.467 24.747 55.467 55.467s-24.747 55.467-55.467 55.467c-3.2 0-6.4-.213-9.6-.853-7.893-.64-15.573-.853-23.68-.853-186.24 0-337.067 150.827-337.067 337.067s150.827 337.067 337.067 337.067 337.067-150.827 337.067-337.067c0-44.8-8.747-87.467-24.533-126.507-18.773 10.027-33.28 17.707-37.12 19.84-13.867 7.467-21.333 2.987-20.48-9.387s18.347-163.413 18.347-163.413c2.347-12.16 10.453-16.427 19.84-12.8 0 0 142.933 70.613 152.32 75.307 9.387 4.907 8.96 14.72-1.92 20.48z"/><glyph unicode="" glyph-name="course-record" d="M915.2 765.867H104.533c-23.565 0-42.667-19.102-42.667-42.667V168.533c0-23.565 19.102-42.667 42.667-42.667H915.2c23.565 0 42.667 19.102 42.667 42.667V723.2c0 23.565-19.102 42.667-42.667 42.667zM392.533 298.569v295.366l255.795-147.684-255.795-147.682z"/><glyph unicode="" glyph-name="course-live" d="M960 737.794L701.867 559.859v136.683c0 23.219-17.361 41.591-40.092 41.591H104.092c-22.731 0-42.225-18.37-42.225-41.591V204.629c0-23.219 19.494-42.496 42.225-42.496h557.685c22.731 0 40.092 19.277 40.092 42.496V339.69l258.133-180.578v578.682z"/><glyph unicode="" glyph-name="alert" d="M512 832c-212.077 0-384-171.923-384-384S299.923 64 512 64s384 171.923 384 384-171.923 384-384 384zm0-640c-23.564 0-42.667 19.103-42.667 42.667s19.103 42.667 42.667 42.667 42.667-19.103 42.667-42.667S535.564 192 512 192zm42.667 213.333c0-23.564-19.103-42.667-42.667-42.667s-42.667 19.103-42.667 42.667v256C469.333 684.897 488.436 704 512 704s42.667-19.103 42.667-42.667z"/><glyph unicode="" glyph-name="info" d="M512 832c-212.077 0-384-171.923-384-384S299.923 64 512 64s384 171.923 384 384-171.923 384-384 384zm42.667-597.333C554.667 211.103 535.564 192 512 192s-42.667 19.103-42.667 42.667v256c0 23.564 19.103 42.667 42.667 42.667s42.667-19.103 42.667-42.667zm-42.667 384c-23.564 0-42.667 19.103-42.667 42.667s19.103 42.667 42.667 42.667 42.667-19.103 42.667-42.667-19.103-42.667-42.667-42.667z"/><glyph unicode="" glyph-name="question" d="M512 832c-212.077 0-384-171.923-384-384S299.923 64 512 64s384 171.923 384 384-171.923 384-384 384zm-6.229-642.325c-23.564 0-42.667 19.103-42.667 42.667s19.103 42.667 42.667 42.667 42.667-19.103 42.667-42.667-19.103-42.667-42.667-42.667zm37.226 170.666c-9.792-17.067-24.213-30.336-47.083-27.52s-34.496 22.763-26.347 41.195c26.261 57.6 128 109.333 124.395 187.605-2.261 48.875-40.384 78.165-86.677 78.165-24.021 0-68.053-13.227-79.595-62.059-4.087-15.015-17.599-25.874-33.648-25.874-.396 0-.79.007-1.182.02l.057-.002c-23.701 0-32.405 19.2-31.211 28.203 4.459 33.579 17.365 60.864 39.339 81.856 27.2 26.56 63.765 42.517 110.571 42.517 106.859.085 151.851-87.915 151.851-142.741 0-93.056-94.699-152.683-120.469-201.28z"/><glyph unicode="" glyph-name="success" d="M512 832c-212.077 0-384-171.923-384-384S299.923 64 512 64s384 171.923 384 384-171.923 384-384 384zm219.2-296.533L489.835 294.123c-7.721-7.718-18.386-12.492-30.165-12.492s-22.445 4.774-30.165 12.492L308.822 414.806a42.493 42.493 0 0 0-11.294 28.917c0 23.564 19.103 42.667 42.667 42.667 11.15 0 21.301-4.277 28.902-11.28l-.03.027 90.517-90.517 211.2 211.2c7.728 7.736 18.409 12.522 30.208 12.522 23.581 0 42.698-19.117 42.698-42.698 0-11.783-4.773-22.451-12.49-30.176z"/><glyph unicode="" glyph-name="time" d="M512 896C264.576 896 64 695.424 64 448S264.576 0 512 0s448 200.576 448 448-200.576 448-448 448zm0-832c-212.077 0-384 171.923-384 384s171.923 384 384 384 384-171.923 384-384S724.077 64 512 64zm32 365.254V736c0 17.673-14.327 32-32 32s-32-14.327-32-32V416c0-9.495 4.218-17.933 10.786-23.795.393-.437.683-.93 1.103-1.35L627.654 255.09c12.497-12.497 32.757-12.497 45.254 0s12.497 32.757 0 45.254L543.999 429.255z"/><glyph unicode="" glyph-name="close" d="M603.264 447.245l271.529 271.529c24.994 24.994 24.994 65.517 0 90.509-24.994 24.994-65.517 24.994-90.509 0L512.755 537.757 239.716 810.794c-24.994 24.994-65.517 24.994-90.509 0-24.994-24.994-24.994-65.517 0-90.509l273.037-273.037-271.529-271.531c-24.994-24.994-24.994-65.517 0-90.509 24.994-24.994 65.517-24.994 90.509 0l271.531 271.529 270.02-270.02c24.994-24.994 65.517-24.994 90.509 0 24.994 24.994 24.994 65.517 0 90.509l-270.02 270.02z"/><glyph unicode="" glyph-name="search" d="M974.165 16.006L783.603 206.568c68.521 75.695 110.263 176.087 110.263 286.231 0 235.642-191.025 426.667-426.667 426.667S40.532 728.441 40.532 492.799 231.557 66.132 467.199 66.132c110.146 0 210.537 41.743 286.231 110.266L943.992-14.164c8.331-8.331 21.839-8.331 30.17 0 8.333 8.331 8.333 21.837.002 30.17zM467.2 108.8c-212.077 0-384 171.923-384 384s171.923 384 384 384 384-171.923 384-384-171.923-384-384-384z"/><glyph unicode="" glyph-name="hot" d="M346.78-37.685c-89.327-.002-171.791 36.277-226.246 99.535-53.961 62.684-76.211 146.854-62.65 237.007C78.061 432.99 160.365 524.619 232.982 605.462c40.751 45.365 79.241 88.215 104.954 135.11 58.733 107.104 36.9 148.196 35.132 151.185a31.996 31.996 0 0 0-3.025 35.215 32.007 32.007 0 0 0 32.99 16.301c2.223-.343 55.108-8.877 111.349-47.302 39.14-26.743 85.926-72.354 113.568-146.991 15.221 28.973 21.779 52.094 21.779 103.846a32.002 32.002 0 0 0 22.756 30.637 31.999 31.999 0 0 0 35.904-12.939c8.42-12.685 24.158-31.718 42.379-53.76 107.514-130.039 331.236-400.629 165.235-688.819C836.327-10.374 627.892-30.888 619.06-31.694c-9.847-.883-19.245 2.479-25.988 9.702-1.587 1.574-28.486 27.682-63.578 27.682-15.078 0-29.636-4.649-44.506-14.21a31.946 31.946 0 0 0-5.35-2.765c-43.475-17.519-88.173-26.398-132.858-26.4zm95.735 901.107c-.043-43.379-16.322-95.006-48.465-153.623-29.274-53.382-70.165-98.906-113.459-147.104-69.86-77.775-142.099-158.197-159.422-273.359-10.901-72.469 5.651-136.693 47.866-185.732 42.287-49.12 107.07-77.291 177.741-77.289 35.569 0 71.334 6.974 106.342 20.723 24.346 15.031 50.025 22.647 76.375 22.647 44.288 0 79.074-21.877 96.855-35.938 43.166 6.466 181.09 33.948 234.193 126.14 33.269 57.756 50.293 118.865 50.596 181.628.262 53.954-11.799 110.95-35.849 169.41-43.746 106.334-118.643 198.253-169.969 260.361-7.825-30.711-20.83-53.169-37.796-82.464-6.871-11.863-14.658-25.31-23.166-41.199a31.977 31.977 0 0 0-33.954-16.373 32.002 32.002 0 0 0-25.982 27.313c-10.726 81.67-46.441 143.765-106.15 184.563-12.431 8.495-24.64 15.138-35.757 20.297z"/></font>
</defs>
</svg>
